<?xml version="1.0" standalone="no"?><!DOCTYPE svg PUBLIC "-//W3C//DTD SVG 1.1//EN" "http://www.w3.org/Graphics/SVG/1.1/DTD/svg11.dtd"><svg t="1688291679010" class="icon" viewBox="0 0 1024 1024" version="1.1" xmlns="http://www.w3.org/2000/svg" p-id="851" xmlns:xlink="http://www.w3.org/1999/xlink" width="200" height="200"><path d="M803.4304 870.2464l-24.2432-0.3072-558.4384 0.3072c-16.4352 0-66.432 0-66.432-56.192v-43.2128c0-42.0608 29.6704-82.048 72.1408-97.2032l133.3248-59.392c12.6464-3.84 27.0336-9.9584 32.768-13.696 0.9728-4.608 0.8704-13.8496-1.9968-19.3536-1.2288-2.4064-4.0448-6.5536-7.7056-12.16-22.8864-35.0464-70.4768-107.904-70.4768-176 0-131.9168 89.216-239.2832 198.8608-239.2832 109.6448 0 198.8352 107.3408 198.8352 239.2832 0 62.848-42.2912 126.7456-67.584 164.9152-6.0672 9.1904-13.6704 20.6592-15.0784 24.192-3.2 10.6496-3.6096 16.8448-3.5584 19.7376 5.9392 4.1984 18.3552 10.24 27.6992 13.9008l146.7136 57.1904c41.8048 15.0016 71.424 55.296 71.424 97.8432v43.2128c0 27.648-13.056 41.1392-24.0128 47.5904-12.8 7.5776-27.8528 8.6272-42.24 8.6272zM244.864 818.7392h534.3232c4.608 0 9.088 0.1024 13.44 0.1536l10.8032 0.1536c8.6016 0 12.8-0.5376 14.8224-1.0496 0.128-0.8448 0.256-2.1504 0.256-3.9424v-43.2128c0-20.992-16.0512-41.9584-38.1696-49.8944l-147.3792-57.4464c-5.504-2.0992-33.6128-13.44-47.488-27.1104-14.2592-14.1056-16.5376-37.4528-6.9376-69.4528 2.7904-9.344 9.7536-19.84 21.2992-37.2736 22.0672-33.3824 59.0592-89.216 59.0592-136.6528 0-103.7056-66.2272-188.0832-147.6352-188.0832-81.4336 0-147.6608 84.3776-147.6608 188.0832 0 52.8384 43.5456 119.5264 62.1312 148.0192 4.992 7.6032 8.6272 13.312 10.2656 16.512 12.5184 24.0384 10.752 59.648-3.7888 76.16-12.7232 14.2592-42.1632 24.7552-55.8336 29.056L245.504 721.152c-23.936 8.6016-39.9872 29.2096-39.9872 49.6896v43.2128c0 1.792 0.128 3.0976 0.256 3.9424 2.048 0.512 6.272 1.0496 14.976 1.0496l10.752-0.1536c4.3264-0.1024 8.7808-0.1536 13.3632-0.1536z" fill="#707070" p-id="852"></path></svg>