<?xml version="1.0" standalone="no"?><!DOCTYPE svg PUBLIC "-//W3C//DTD SVG 1.1//EN" "http://www.w3.org/Graphics/SVG/1.1/DTD/svg11.dtd"><svg t="1688291545376" class="icon" viewBox="0 0 1024 1024" version="1.1" xmlns="http://www.w3.org/2000/svg" p-id="1281" xmlns:xlink="http://www.w3.org/1999/xlink" width="200" height="200"><path d="M911.283582 903.641791H114.626866c-21.014925 0-38.208955-17.19403-38.208956-38.208955v-122.268657c0-11.462687 5.731343-22.925373 13.373135-28.656716L349.61194 496.716418c13.373134-11.462687 32.477612-11.462687 45.850747-1.910448l179.582089 126.089552 311.402985-225.432835c11.462687-7.641791 26.746269-9.552239 40.119403-3.820896 13.373134 5.731343 21.014925 19.104478 21.014926 34.38806v441.313433c1.910448 19.104478-15.283582 36.298507-36.298508 36.298507zM152.835821 827.223881h720.238806V498.626866L599.880597 695.402985c-13.373134 9.552239-30.567164 9.552239-43.940298 0l-179.58209-124.179104L152.835821 760.358209v66.865672z" fill="#707070" p-id="1282"></path><path d="M120.358209 533.014925c-7.641791 0-17.19403-3.820896-21.014925-9.552238-9.552239-11.462687-7.641791-30.567164 3.820895-40.119403l263.641791-221.611941c9.552239-7.641791 24.835821-9.552239 36.298508-1.910447l175.761194 129.910447L853.970149 175.761194c13.373134-9.552239 30.567164-7.641791 40.119403 5.731343s7.641791 30.567164-5.731343 40.119403L594.149254 448.955224c-9.552239 7.641791-24.835821 7.641791-34.38806 0l-173.850746-129.910448-248.358209 208.238806c-3.820896 3.820896-11.462687 5.731343-17.19403 5.731343z" fill="#707070" p-id="1283"></path><path d="M869.253731 319.044776h-5.731343c-15.283582-3.820896-24.835821-19.104478-22.925373-34.38806l15.283582-74.507462-72.597015 11.462686c-15.283582 1.910448-30.567164-9.552239-32.477612-24.835821-1.910448-15.283582 9.552239-30.567164 24.835821-32.477612l114.626866-17.194029c9.552239-1.910448 19.104478 1.910448 24.835821 9.552238s9.552239 15.283582 7.641791 24.835821l-24.835821 114.626866c-1.910448 13.373134-15.283582 22.925373-28.656717 22.925373z" fill="#707070" p-id="1284"></path></svg>