<?xml version="1.0" standalone="no"?><!DOCTYPE svg PUBLIC "-//W3C//DTD SVG 1.1//EN" "http://www.w3.org/Graphics/SVG/1.1/DTD/svg11.dtd"><svg t="1688291879761" class="icon" viewBox="0 0 1228 1024" version="1.1" xmlns="http://www.w3.org/2000/svg" p-id="2224" xmlns:xlink="http://www.w3.org/1999/xlink" width="239.84375" height="200"><path d="M614.4 998.058667C439.637333 998.058667 65.7408 617.403733 65.7408 358.058667A293.410133 293.410133 0 0 1 358.741333 64.989867c95.095467 0 184.046933 38.775467 253.610667 93.457066C686.08 103.765333 774.9632 64.853333 870.058667 64.853333a293.410133 293.410133 0 0 1 293.0688 293.137067c0 259.413333-373.9648 640-548.727467 640zM358.741333 139.946667a218.3168 218.3168 0 0 0-218.043733 218.112C140.629333 577.672533 489.2672 922.965333 614.4 922.965333c125.1328 0 473.770667-345.361067 473.770667-564.974933a218.3168 218.3168 0 0 0-218.112-218.112c-54.818133 0-109.704533 17.2032-161.928534 46.011733-18.432 10.103467-35.157333 21.026133-49.9712 31.880534a288.290133 288.290133 0 0 0-18.773333 14.882133 37.546667 37.546667 0 0 1-50.176-0.136533C550.570667 193.877333 452.334933 139.946667 358.741333 139.946667z" fill="#707070" p-id="2225"></path></svg>